# Blender v2.79 (sub 0) OBJ File: ''
# www.blender.org
v 1.000000 -1.000000 -1.000000
v 1.000000 -1.000000 1.000000
v -1.000000 -1.000000 1.000000
v -1.000000 -1.000000 -1.000000
v 1.000000 1.000000 -0.999999
v 0.999999 1.000000 1.000001
v -1.000000 1.000000 1.000000
v -1.000000 1.000000 -1.000000
v 1.529168 -1.529168 0.000000
v -1.529168 -1.529168 -0.000000
v 1.529168 1.529168 0.000001
v -1.529168 1.529168 -0.000000
v 0.000000 -1.300708 -1.300708
v 0.000000 -1.300708 1.300707
v 0.000000 1.300708 -1.300707
v -0.000001 1.300708 1.300708
v -0.000000 1.989001 0.000000
v 0.000000 -1.989001 -0.000000
v 1.284433 0.000000 -1.284433
v 1.284433 0.000000 1.284433
v -1.284433 0.000000 1.284433
v -1.284433 0.000000 -1.284433
v -1.964114 0.000000 -0.000000
v 1.964114 0.000000 0.000001
v 0.000000 0.000000 -1.670672
v -0.000000 0.000000 1.670672
vt 0.287471 0.682792
vt 0.108922 0.573833
vt 0.227379 0.474800
vt 0.633947 1.000000
vt 0.718850 0.837818
vt 0.787471 0.934995
vt 0.401849 0.184639
vt 0.567539 0.142466
vt 0.506462 0.272112
vt 0.653880 0.332516
vt 0.782271 0.205612
vt 0.782271 0.353218
vt 0.010714 0.290161
vt 0.101314 0.084318
vt 0.115326 0.202688
vt 0.262745 0.142284
vt 0.176403 0.332334
vt 0.606136 0.643214
vt 0.767658 0.701406
vt 1.000000 0.888221
vt 0.818666 0.831585
vt 0.980188 0.773394
vt 0.435689 0.512630
vt 0.574941 0.662310
vt 0.407339 0.622506
vt 0.296269 0.474800
vt 0.302466 0.322596
vt 0.931380 0.636981
vt 0.846476 0.474800
vt 1.000000 0.539805
vt 0.396392 0.771269
vt 0.514849 0.870303
vt 0.391136 0.269188
vt 0.391136 0.121581
vt 0.687405 0.000000
vt 0.505960 0.008742
vt 0.148219 0.832473
vt 0.287471 0.870303
vt 0.492450 0.390481
vt 0.595933 0.474799
vt 0.287471 0.635793
vt 0.787471 0.615813
vt 0.787471 0.586579
vt 0.679873 0.474800
vt 0.204797 0.000000
vt 0.114824 0.466057
vt 0.000000 0.709310
vt 0.119869 0.722596
vt 0.391136 0.388000
vt 0.574941 0.858987
vt 0.693602 0.152203
vt 0.000000 0.086799
vt 0.892402 1.000000
vt 0.574941 0.474800
vt 0.298647 0.818267
vt 0.011177 0.526836
vn -0.2404 -0.7996 0.5503
vn -0.3765 0.8188 0.4333
vn 0.8250 0.3588 0.4366
vn -0.2714 0.3340 0.9027
vn -0.8250 0.3588 -0.4366
vn -0.2714 -0.3340 -0.9027
vn -0.8250 0.3588 0.4366
vn 0.8250 0.3588 -0.4366
vn -0.3765 0.8188 -0.4333
vn -0.3765 -0.8188 -0.4333
vn 0.3765 -0.8188 -0.4333
vn 0.2404 0.7996 -0.5503
vn 0.2714 -0.3340 -0.9027
vn 0.2714 0.3340 0.9027
vn 0.2404 0.7996 0.5503
vn 0.2404 -0.7996 0.5503
vn 0.3482 -0.2565 0.9016
vn 0.3482 0.2565 -0.9016
vn 0.8051 -0.2290 -0.5472
vn -0.8051 -0.2290 0.5472
vn -0.3482 0.2565 -0.9016
vn -0.8051 -0.2290 -0.5472
vn -0.3482 -0.2565 0.9016
vn 0.8051 -0.2290 0.5472
vn -0.3765 -0.8188 0.4333
vn -0.2404 0.7996 0.5503
vn 0.8051 0.2290 0.5472
vn -0.3482 0.2565 0.9016
vn -0.8051 0.2290 -0.5472
vn -0.3482 -0.2565 -0.9016
vn -0.8051 0.2290 0.5472
vn 0.8051 0.2290 -0.5472
vn -0.2404 0.7996 -0.5503
vn -0.2404 -0.7996 -0.5503
vn 0.2404 -0.7996 -0.5503
vn 0.3765 0.8188 -0.4333
vn 0.3482 -0.2565 -0.9016
vn 0.3482 0.2565 0.9016
vn 0.3765 0.8188 0.4333
vn 0.3765 -0.8188 0.4333
vn 0.2714 -0.3340 0.9027
vn 0.2714 0.3340 -0.9027
vn 0.8250 -0.3588 -0.4366
vn -0.8250 -0.3588 0.4366
vn -0.2714 0.3340 -0.9027
vn -0.8250 -0.3588 -0.4366
vn -0.2714 -0.3340 0.9027
vn 0.8250 -0.3588 0.4366
s off
f 18/1/1 3/2/1 10/3/1
f 17/4/2 7/5/2 16/6/2
f 24/7/3 6/8/3 20/9/3
f 26/10/4 7/11/4 21/12/4
f 23/13/5 8/14/5 22/15/5
f 25/16/6 4/17/6 22/15/6
f 7/5/7 23/18/7 21/19/7
f 5/20/8 24/21/8 19/22/8
f 8/23/9 17/24/9 15/25/9
f 18/26/10 4/17/10 13/27/10
f 1/28/11 18/29/11 13/30/11
f 5/31/12 17/24/12 11/32/12
f 1/33/13 25/16/13 19/34/13
f 6/8/14 26/10/14 20/9/14
f 17/35/15 6/8/15 11/36/15
f 2/37/16 18/1/16 9/38/16
f 2/39/17 26/10/17 14/40/17
f 5/31/18 25/41/18 15/25/18
f 1/28/19 24/21/19 9/42/19
f 3/43/20 23/18/20 10/44/20
f 25/16/21 8/14/21 15/45/21
f 23/13/22 4/17/22 10/46/22
f 26/47/23 3/2/23 14/48/23
f 24/7/24 2/39/24 9/49/24
f 18/1/25 14/48/25 3/2/25
f 17/4/26 12/50/26 7/5/26
f 24/7/27 11/36/27 6/8/27
f 26/10/28 16/51/28 7/11/28
f 23/13/29 12/52/29 8/14/29
f 25/16/30 13/27/30 4/17/30
f 7/5/31 12/50/31 23/18/31
f 5/20/32 11/53/32 24/21/32
f 8/23/33 12/54/33 17/24/33
f 18/26/34 10/46/34 4/17/34
f 1/28/35 9/42/35 18/29/35
f 5/31/36 15/25/36 17/24/36
f 1/33/37 13/27/37 25/16/37
f 6/8/38 16/51/38 26/10/38
f 17/35/39 16/51/39 6/8/39
f 2/37/40 14/48/40 18/1/40
f 2/39/41 20/9/41 26/10/41
f 5/31/42 19/55/42 25/41/42
f 1/28/43 19/22/43 24/21/43
f 3/43/44 21/19/44 23/18/44
f 25/16/45 22/15/45 8/14/45
f 23/13/46 22/15/46 4/17/46
f 26/47/47 21/56/47 3/2/47
f 24/7/48 20/9/48 2/39/48
